<svg width="86" height="26" viewBox="0 0 86 26" fill="none" xmlns="http://www.w3.org/2000/svg">
<g clip-path="url(#clip0)">
<path d="M4.49565 2.17681C4.39414 2.29545 4.29989 2.42012 4.21343 2.55014C4.01297 2.85067 3.84675 3.17267 3.71787 3.51015C3.6234 3.72887 3.54902 3.95573 3.49565 4.18793C3.41239 4.55216 3.39209 4.92796 3.43565 5.29904C3.49526 5.68692 3.61839 6.06232 3.8001 6.41015C4.02315 6.84102 4.29453 7.2451 4.60899 7.61459C4.63995 7.65433 4.67847 7.68756 4.72232 7.71237C4.77617 7.74417 4.83648 7.76348 4.89879 7.76886C4.96109 7.77424 5.02381 7.76557 5.08232 7.74348C5.15802 7.70587 5.21901 7.64409 5.25566 7.56793C5.50232 7.12348 5.66454 7.13459 5.97343 6.49237C6.20089 6.07428 6.34575 5.61632 6.4001 5.14348C6.43387 4.744 6.39778 4.34168 6.29343 3.95459C6.22965 3.72054 6.14255 3.49348 6.03343 3.27681C5.90115 2.99447 5.74031 2.7264 5.55343 2.47681C5.47385 2.37873 5.41217 2.2674 5.37121 2.14792C5.35203 2.08817 5.33645 2.02732 5.32454 1.96571C5.30347 1.85701 5.28863 1.7472 5.2801 1.63681C5.26232 1.43015 5.2401 1.25459 5.21788 1.09682C5.16976 0.867812 5.13415 0.636359 5.11121 0.403483C5.11131 0.313808 5.10162 0.224388 5.08232 0.136814C5.08029 0.0967569 5.0637 0.0588194 5.03565 0.0301446C5.01183 0.0106477 4.982 0 4.95121 0C4.92043 0 4.89059 0.0106477 4.86677 0.0301446C4.85672 0.0441312 4.84957 0.0599951 4.84576 0.076789C4.84194 0.0935829 4.84153 0.110967 4.84455 0.127923C4.83533 0.215454 4.82048 0.302304 4.8001 0.387926C4.8001 0.387926 4.7601 0.610144 4.68454 1.04348C4.63121 1.35681 4.60454 1.50793 4.57788 1.65237C4.55121 1.79682 4.53566 1.89903 4.51788 2.00348L4.49565 2.17681Z" fill="#006838" stroke="white" stroke-width="0.2" stroke-miterlimit="10"/>
<path d="M0.893335 6.79018C0.874489 6.94505 0.864103 7.10084 0.862224 7.25685C0.860727 7.61781 0.899484 7.97781 0.977779 8.33018C1.01661 8.5665 1.07762 8.79863 1.16 9.02351C1.2909 9.37361 1.48026 9.69897 1.72 9.98574C1.98269 10.275 2.29127 10.519 2.63334 10.708C3.05506 10.9453 3.50237 11.1339 3.96667 11.2702C4.01551 11.2855 4.06664 11.2923 4.11778 11.2902C4.17994 11.2865 4.2405 11.269 4.29507 11.239C4.34965 11.2091 4.39688 11.1673 4.43334 11.1168C4.47683 11.0441 4.49408 10.9586 4.48223 10.8746C4.44445 10.3702 4.58445 10.288 4.48223 9.58351C4.44411 9.10872 4.31351 8.64596 4.09778 8.22129C3.90612 7.86904 3.65415 7.55314 3.35334 7.28795C3.17168 7.12719 2.9744 6.985 2.76445 6.86351C2.49816 6.70046 2.21596 6.56495 1.92222 6.45907C1.80251 6.42123 1.69042 6.36255 1.59111 6.28573C1.53778 6.24351 1.49556 6.20129 1.45111 6.15907C1.37209 6.08066 1.29788 5.99755 1.22889 5.91018C1.1 5.74573 0.984447 5.6124 0.880002 5.49018C0.712681 5.32644 0.555359 5.1528 0.40889 4.97018C0.358758 4.89585 0.301445 4.82663 0.237778 4.76351C0.213545 4.73189 0.178913 4.70985 0.140001 4.70129C0.109777 4.69826 0.0794241 4.70563 0.0539653 4.7222C0.0285064 4.73877 0.00946721 4.76354 0 4.7924C0 4.82796 0.0155564 4.85462 0.0355564 4.88795C0.0752986 4.96648 0.110179 5.04737 0.140001 5.13018L0.404445 5.73906C0.531111 6.0324 0.593334 6.18351 0.651112 6.30795L0.793334 6.63462L0.893335 6.79018Z" fill="#006838" stroke="white" stroke-width="0.2" stroke-miterlimit="10"/>
<path d="M0.893391 11.3457C0.874545 11.5006 0.86416 11.6564 0.86228 11.8124C0.860783 12.1733 0.899541 12.5333 0.977835 12.8857C1.01667 13.122 1.07768 13.3542 1.16006 13.5791C1.29096 13.9292 1.48031 14.2545 1.72006 14.5413C1.98275 14.8306 2.29133 15.0746 2.63339 15.2635C3.05511 15.5008 3.50242 15.6894 3.96672 15.8257C4.01556 15.841 4.06669 15.8478 4.11783 15.8457C4.17999 15.842 4.24055 15.8246 4.29512 15.7946C4.3497 15.7646 4.39693 15.7229 4.43339 15.6724C4.47705 15.5997 4.49431 15.5141 4.48228 15.4302C4.4445 14.9279 4.5845 14.8435 4.48228 14.1391C4.44416 13.6643 4.31356 13.2015 4.09783 12.7768C3.9056 12.425 3.65371 12.1092 3.35339 11.8435C3.17173 11.6827 2.97446 11.5405 2.7645 11.419C2.49821 11.256 2.21602 11.1205 1.92228 11.0146C1.80216 10.9778 1.68989 10.919 1.59117 10.8413C1.53783 10.7991 1.49561 10.7568 1.45117 10.7146C1.37158 10.6367 1.29733 10.5536 1.22895 10.4657C1.10006 10.3013 0.984503 10.1679 0.880059 10.0479C0.71303 9.88315 0.555727 9.70878 0.408948 9.52572C0.359195 9.45179 0.301845 9.38327 0.237836 9.32127C0.214404 9.28836 0.179539 9.26539 0.140059 9.25683C0.109836 9.2538 0.0794823 9.26118 0.0540235 9.27775C0.0285647 9.29431 0.00952554 9.31908 5.83578e-05 9.34794C-0.00097624 9.38321 0.0117796 9.41749 0.0356147 9.4435C0.0749562 9.52221 0.109827 9.60308 0.140059 9.68572L0.404502 10.2968L0.651169 10.8635L0.793391 11.1902L0.893391 11.3457Z" fill="#006838" stroke="white" stroke-width="0.2" stroke-miterlimit="10"/>
<path d="M0.893335 15.9835C0.874489 16.1384 0.864103 16.2942 0.862224 16.4502C0.860727 16.8112 0.899484 17.1712 0.977779 17.5235C1.01661 17.7599 1.07762 17.992 1.16 18.2169C1.2909 18.567 1.48026 18.8923 1.72 19.1791C1.98269 19.4684 2.29127 19.7124 2.63334 19.9013C3.05506 20.1386 3.50237 20.3272 3.96667 20.4635C4.01551 20.4789 4.06664 20.4856 4.11778 20.4835C4.17994 20.4798 4.2405 20.4624 4.29507 20.4324C4.34965 20.4024 4.39688 20.3607 4.43334 20.3102C4.47683 20.2374 4.49408 20.1519 4.48223 20.068C4.44445 19.5635 4.58445 19.4813 4.48223 18.7769C4.44411 18.3021 4.31351 17.8393 4.09778 17.4146C3.90612 17.0624 3.65415 16.7465 3.35334 16.4813C3.17168 16.3206 2.9744 16.1784 2.76445 16.0569C2.49816 15.8938 2.21596 15.7583 1.92222 15.6524C1.80251 15.6146 1.69042 15.5559 1.59111 15.4791C1.53778 15.4369 1.49556 15.3946 1.45111 15.3524C1.37209 15.274 1.29788 15.1909 1.22889 15.1035C1.1 14.9391 0.984447 14.8058 0.880002 14.6835C0.712681 14.5198 0.555359 14.3462 0.40889 14.1635C0.358758 14.0892 0.301445 14.02 0.237778 13.9569C0.213545 13.9252 0.178913 13.9032 0.140001 13.8946C0.109777 13.8916 0.0794241 13.899 0.0539653 13.9156C0.0285064 13.9321 0.00946721 13.9569 0 13.9858C0 14.0213 0.0155564 14.048 0.0355564 14.0813C0.0752986 14.1598 0.110179 14.2407 0.140001 14.3235C0.140001 14.3235 0.228889 14.528 0.404445 14.9324C0.531111 15.2258 0.593334 15.3658 0.651112 15.5013L0.793334 15.828L0.893335 15.9835Z" fill="#006838" stroke="white" stroke-width="0.2" stroke-miterlimit="10"/>
<path d="M8.14446 6.3057C7.99339 6.35143 7.84501 6.40558 7.70001 6.46792C7.36791 6.61078 7.05326 6.79122 6.76223 7.0057C6.56299 7.13728 6.37562 7.28599 6.20223 7.45014C5.93482 7.71213 5.71323 8.0171 5.54668 8.35237C5.38838 8.70951 5.28931 9.09004 5.25335 9.47903C5.20756 9.9622 5.21651 10.449 5.28001 10.9301C5.2842 10.9806 5.29856 11.0298 5.32223 11.0746C5.34975 11.1307 5.38965 11.1799 5.43892 11.2184C5.48819 11.2569 5.54555 11.2837 5.60668 11.2968C5.69081 11.3061 5.77571 11.2882 5.8489 11.2457C6.29334 11.0057 6.42668 11.1035 7.03334 10.7301C7.45182 10.5035 7.82237 10.1979 8.12446 9.83014C8.36943 9.51234 8.5574 9.15443 8.68001 8.77236C8.75337 8.5408 8.80398 8.30264 8.83112 8.06126C8.87219 7.75267 8.88261 7.44078 8.86223 7.13014C8.84732 7.00452 8.85561 6.87722 8.88668 6.75459C8.90265 6.69405 8.9227 6.63465 8.94668 6.57681C8.9856 6.47338 9.03241 6.37308 9.08668 6.27681C9.18446 6.09237 9.26001 5.93236 9.3289 5.78792C9.41099 5.56881 9.50673 5.35505 9.61557 5.14792C9.66341 5.07208 9.7036 4.99169 9.73557 4.90792C9.75629 4.87318 9.76267 4.83173 9.75335 4.79237C9.74354 4.76373 9.72442 4.7392 9.69905 4.72269C9.67367 4.70617 9.6435 4.69863 9.61335 4.70126C9.57779 4.70126 9.56223 4.74125 9.54001 4.77236C9.48426 4.83995 9.42491 4.90449 9.36223 4.9657L8.91779 5.45459L8.49779 5.89903L8.25557 6.16125L8.14446 6.3057Z" fill="#006838" stroke="white" stroke-width="0.2" stroke-miterlimit="10"/>
<path d="M8.17789 10.8591C8.02701 10.9045 7.87866 10.9579 7.73344 11.0191C7.40221 11.1637 7.08776 11.344 6.79566 11.5569C6.59696 11.6892 6.40965 11.8378 6.23566 12.0013C5.96773 12.2628 5.74608 12.5679 5.5801 12.9035C5.42181 13.2607 5.32273 13.6412 5.28677 14.0302C5.24102 14.5126 5.24997 14.9987 5.31343 15.4791C5.31756 15.5303 5.33192 15.5802 5.35566 15.6257C5.38295 15.6816 5.4225 15.7306 5.47136 15.7691C5.52023 15.8076 5.57715 15.8345 5.63788 15.848C5.72305 15.8583 5.8092 15.8395 5.88233 15.7946C6.32677 15.5568 6.46011 15.6524 7.06677 15.2813C7.48577 15.0545 7.85641 14.748 8.15788 14.3791C8.40248 14.0618 8.59043 13.7047 8.71344 13.3235C8.78442 13.0913 8.83499 12.8534 8.86455 12.6124C8.90455 12.303 8.91496 11.9905 8.89567 11.6791C8.87969 11.5543 8.88722 11.4277 8.91789 11.3057C8.93524 11.2454 8.95601 11.186 8.98011 11.128C9.01903 11.0245 9.06584 10.9242 9.12011 10.828C9.21789 10.6435 9.29344 10.4835 9.36233 10.3391C9.44391 10.1198 9.53967 9.90597 9.649 9.69907C9.69631 9.62328 9.73577 9.54287 9.76678 9.45908C9.78804 9.42456 9.7952 9.38317 9.78678 9.34352C9.77697 9.31488 9.75785 9.29035 9.73248 9.27383C9.70711 9.25732 9.67693 9.24978 9.64678 9.2524C9.61122 9.2524 9.59567 9.29241 9.57345 9.32352C9.51755 9.39166 9.45743 9.45623 9.39344 9.51685C9.39344 9.51685 9.24233 9.6813 8.949 10.0057L8.529 10.4502L8.28677 10.7124L8.17789 10.8591Z" fill="#006838" stroke="white" stroke-width="0.2" stroke-miterlimit="10"/>
<path d="M8.17788 15.4968C8.027 15.5423 7.87865 15.5957 7.73343 15.6568C7.4022 15.8014 7.08775 15.9818 6.79566 16.1946C6.59594 16.3255 6.40851 16.4743 6.23566 16.639C5.96724 16.9002 5.74552 17.2053 5.5801 17.5413C5.42181 17.8984 5.32273 18.2789 5.28677 18.6679C5.24102 19.1504 5.24997 19.6364 5.31343 20.1168C5.31756 20.168 5.33192 20.2179 5.35566 20.2635C5.38295 20.3194 5.4225 20.3684 5.47136 20.4069C5.52023 20.4453 5.57715 20.4723 5.63788 20.4857C5.72298 20.4948 5.80876 20.4761 5.88232 20.4324C6.32677 20.1946 6.4601 20.2902 7.06677 19.919C7.48576 19.6922 7.8564 19.3858 8.15787 19.0168C8.40314 18.7026 8.59257 18.3486 8.71787 17.9702C8.78886 17.738 8.83942 17.5 8.86898 17.259C8.90898 16.9496 8.9194 16.6371 8.9001 16.3257C8.88412 16.201 8.89166 16.0743 8.92232 15.9524C8.93968 15.8913 8.96046 15.8312 8.98454 15.7724C9.02442 15.6693 9.07119 15.5691 9.12454 15.4724C9.22232 15.2902 9.29787 15.1302 9.36676 14.9857C9.44783 14.7662 9.54361 14.5524 9.65343 14.3457C9.70108 14.2693 9.74056 14.1881 9.77121 14.1035C9.79256 14.0698 9.79975 14.0291 9.79121 13.9902C9.78174 13.9613 9.7627 13.9365 9.73724 13.92C9.71178 13.9034 9.68143 13.896 9.65121 13.899C9.61565 13.899 9.60009 13.9368 9.57787 13.9702C9.52198 14.0383 9.46186 14.1029 9.39787 14.1635L8.9401 14.6368L8.5201 15.0924L8.27788 15.3546L8.17788 15.4968Z" fill="#006838" stroke="white" stroke-width="0.2" stroke-miterlimit="10"/>
<path d="M3.95337 24.859C3.95614 24.9084 3.96283 24.9574 3.97337 25.0057C4.01573 25.1687 4.10636 25.3151 4.23337 25.4257C4.30063 25.4824 4.37541 25.5295 4.45559 25.5657C4.71075 25.6861 5.00319 25.7004 5.26893 25.6057C5.35767 25.5716 5.44081 25.5244 5.51559 25.4657C5.69832 25.3263 5.81822 25.1201 5.84893 24.8924C5.85231 24.8547 5.85231 24.8167 5.84893 24.779V21.5501C5.85164 21.5169 5.85164 21.4834 5.84893 21.4501C5.79483 21.24 5.66403 21.0576 5.48226 20.939C5.41358 20.8753 5.33471 20.8234 5.24893 20.7857C5.03485 20.7006 4.79633 20.7006 4.58226 20.7857C4.47564 20.824 4.37641 20.8804 4.28893 20.9524C4.13146 21.0863 4.01769 21.2643 3.96226 21.4635V24.859H3.95337Z" fill="#006838" stroke="white" stroke-width="0.2" stroke-miterlimit="10"/>
<path d="M15.7947 3.05212H21.1013L24.6147 8.02101H24.7947L28.3147 3.05212H33.6191V18.7188H28.3747V10.5188H28.2413L24.7947 15.0521H24.6147L21.168 10.5188H21.0325V18.7099H15.7947V3.05212Z" fill="white"/>
<path d="M46.1236 17.121H40.4836L40.0569 18.7099H34.6191L39.1858 3.05212H47.4258L51.9925 18.7188H46.548L46.1236 17.121ZM45.0125 12.9366L43.4903 7.18323H43.1325L41.6103 12.9366H45.0125Z" fill="white"/>
<path d="M69.177 8.01213C69.177 10.7655 66.6482 12.9366 63.8437 12.9366H58.4548V18.7143H53.217V3.05212H64.0748C67.2526 3.05212 69.177 4.87879 69.177 8.01213ZM63.9393 7.96768C63.9393 7.4299 63.5815 7.18323 63.0882 7.18323H58.4548V8.79435H63.0882C63.1996 8.80087 63.3111 8.78414 63.4157 8.74523C63.5203 8.70632 63.6156 8.64608 63.6956 8.56833C63.7757 8.49059 63.8387 8.39703 63.8806 8.29363C63.9226 8.19022 63.9425 8.07922 63.9393 7.96768V7.96768Z" fill="white"/>
<path d="M70.2503 14.5699H78.4215C79.1148 14.5699 79.4503 14.2565 79.4503 13.741C79.4503 13.2254 79.1148 12.9365 78.3992 12.9365H74.6815C72.0637 12.9365 69.937 11.1454 69.937 7.98988C69.937 4.36322 72.4215 3.04321 74.9281 3.04321H84.1948V7.18321H76.1948C75.5904 7.18321 75.1659 7.40544 75.1659 7.96766C75.1659 8.52988 75.5904 8.79432 76.1948 8.79432H79.6881C82.6859 8.79432 84.6792 10.5721 84.6792 13.7188C84.6792 16.6965 82.4415 18.7099 79.5303 18.7099H70.1748L70.2503 14.5699Z" fill="white"/>
<path d="M19.0681 24.3587H18.6237L17.8681 22.3143L17.2015 24.3587H16.757L15.8926 21.6921H16.3815L16.9904 23.7365H16.9815L17.6681 21.6921H18.1348L18.8326 23.7365H18.8437L19.4459 21.6921H19.9237L19.0681 24.3587Z" fill="white"/>
<path d="M23.2771 24.3587H22.8327L22.0771 22.3143L21.4104 24.3587H20.966L20.1016 21.6921H20.5904L21.1993 23.7365H21.2038L21.8904 21.6921H22.3571L23.0549 23.7365H23.066L23.6682 21.6921H24.146L23.2771 24.3587Z" fill="white"/>
<path d="M27.4861 24.3587H27.0416L26.2861 22.3143L25.6194 24.3587H25.175L24.3105 21.6921H24.7994L25.4083 23.7365H25.4194L26.1061 21.6921H26.5728L27.2705 23.7365L27.8728 21.6921H28.3505L27.4861 24.3587Z" fill="white"/>
<path d="M28.8991 23.7187C28.9899 23.7187 29.0769 23.7548 29.1411 23.819C29.2053 23.8831 29.2414 23.9702 29.2414 24.061C29.242 24.1063 29.2328 24.1512 29.2144 24.1927C29.196 24.2341 29.1688 24.2711 29.1347 24.301C29.104 24.3324 29.0674 24.3575 29.027 24.3746C28.9865 24.3918 28.9431 24.4008 28.8991 24.401C28.8105 24.4 28.7258 24.3641 28.6636 24.301C28.6302 24.2706 28.6037 24.2335 28.5857 24.1921C28.5677 24.1508 28.5586 24.1061 28.5591 24.061C28.5583 24.0159 28.5668 23.9711 28.584 23.9295C28.6012 23.8878 28.6268 23.8501 28.6591 23.8187C28.6901 23.7864 28.7274 23.7608 28.7687 23.7436C28.81 23.7264 28.8544 23.718 28.8991 23.7187V23.7187Z" fill="white"/>
<path d="M30.1105 22.3299C30.1105 22.2099 30.1061 22.0965 30.0972 21.9899C30.0972 21.8832 30.0972 21.7876 30.0972 21.701H30.5194C30.5194 21.7721 30.5194 21.8432 30.5194 21.9232C30.5194 22.0032 30.5194 22.0676 30.5194 22.1454H30.5372C30.5695 22.077 30.6122 22.014 30.6638 21.9588C30.722 21.8967 30.7877 21.8422 30.8594 21.7965C30.9395 21.7481 31.0253 21.7101 31.1149 21.6832C31.3337 21.6237 31.5649 21.6276 31.7816 21.6943C31.868 21.7252 31.949 21.7694 32.0216 21.8254C32.0811 21.8711 32.1322 21.9267 32.1727 21.9899C32.2083 22.0499 32.2394 22.101 32.2616 22.1454C32.3481 21.9995 32.4638 21.8732 32.6016 21.7743C32.7507 21.6797 32.9252 21.6332 33.1016 21.641C33.2643 21.6368 33.4264 21.6632 33.5794 21.7188C33.7006 21.7646 33.8078 21.8412 33.8905 21.941C33.9735 22.0443 34.032 22.1651 34.0616 22.2943C34.0969 22.4458 34.1141 22.601 34.1127 22.7565V24.3699H33.6683V22.7788C33.6676 22.6891 33.6579 22.5998 33.6394 22.5121C33.6196 22.4322 33.585 22.3568 33.5372 22.2899C33.4846 22.2198 33.416 22.1634 33.3372 22.1254C33.2376 22.08 33.1287 22.0587 33.0194 22.0632C32.9274 22.0633 32.8365 22.083 32.7527 22.121C32.6689 22.1583 32.5934 22.212 32.5305 22.2788C32.4656 22.3508 32.4151 22.4345 32.3816 22.5254C32.345 22.6289 32.327 22.7379 32.3283 22.8476V24.381H31.8838V22.8765C31.901 22.6599 31.8595 22.4427 31.7638 22.2476C31.7197 22.1861 31.6607 22.1369 31.5922 22.1046C31.5238 22.0724 31.4482 22.0581 31.3727 22.0632C31.2444 22.0599 31.1169 22.0849 30.9994 22.1365C30.8965 22.1874 30.8085 22.2639 30.7438 22.3588C30.674 22.4561 30.6241 22.5664 30.5972 22.6832C30.5629 22.8183 30.5465 22.9572 30.5483 23.0965V24.3921H30.1038L30.1105 22.3299Z" fill="white"/>
<path d="M34.8861 20.661C34.8865 20.5775 34.9201 20.4976 34.9794 20.4388C35.008 20.4084 35.0424 20.3841 35.0806 20.3673C35.1188 20.3505 35.1599 20.3416 35.2016 20.341C35.2434 20.3413 35.2846 20.3502 35.3228 20.367C35.361 20.3838 35.3954 20.4082 35.4238 20.4388C35.484 20.5002 35.5176 20.5828 35.5176 20.6688C35.5176 20.7548 35.484 20.8373 35.4238 20.8988C35.3929 20.9287 35.3564 20.9521 35.3163 20.9678C35.2763 20.9834 35.2335 20.9909 35.1905 20.9899C35.1073 20.99 35.0275 20.9573 34.9683 20.8988C34.9392 20.8668 34.917 20.8292 34.9028 20.7883C34.8887 20.7474 34.883 20.7041 34.8861 20.661ZM34.9883 21.701H35.4327V24.3677H34.9883V21.701Z" fill="white"/>
<path d="M38.2038 22.3654C38.1206 22.262 38.016 22.1778 37.8971 22.1188C37.7828 22.0665 37.6584 22.0399 37.5327 22.041C37.3982 22.0388 37.2649 22.0653 37.1415 22.1188C37.0312 22.1695 36.9345 22.2456 36.8593 22.341C36.7848 22.435 36.7283 22.542 36.6927 22.6566C36.6537 22.781 36.6342 22.9107 36.6349 23.041C36.6338 23.1714 36.6564 23.3009 36.7015 23.4232C36.7423 23.5383 36.8032 23.6452 36.8815 23.7388C36.9583 23.8325 37.0547 23.9083 37.1638 23.961C37.2795 24.0138 37.4055 24.0404 37.5327 24.0388C37.6625 24.0431 37.7914 24.0151 37.9078 23.9573C38.0241 23.8995 38.1243 23.8138 38.1993 23.7077L38.5304 24.021C38.4066 24.1639 38.2504 24.2751 38.0749 24.3455C37.7169 24.4812 37.3217 24.4812 36.9638 24.3455C36.7999 24.2811 36.652 24.1817 36.5304 24.0543C36.4082 23.9265 36.313 23.7753 36.2504 23.6099C36.1223 23.2506 36.1223 22.8581 36.2504 22.4988C36.3132 22.3338 36.4091 22.1835 36.5321 22.057C36.6552 21.9305 36.8028 21.8305 36.966 21.7632C37.144 21.6922 37.3343 21.6567 37.526 21.6588C37.7174 21.6572 37.9074 21.6919 38.086 21.761C38.2627 21.8294 38.421 21.9383 38.5482 22.0788L38.2038 22.3654Z" fill="white"/>
<path d="M39.0506 22.3299C39.0506 22.2099 39.0461 22.0965 39.0372 21.9899C39.0372 21.8832 39.0261 21.7877 39.0261 21.701H39.4461C39.4461 21.7721 39.4461 21.8432 39.4461 21.9232C39.4461 22.0032 39.4461 22.0677 39.4461 22.1454H39.4572C39.4895 22.077 39.5323 22.0141 39.5839 21.9588C39.642 21.8967 39.7077 21.8422 39.7795 21.7965C39.8595 21.7482 39.9454 21.7101 40.035 21.6832C40.1346 21.6541 40.2379 21.6399 40.3417 21.641C40.372 21.6387 40.4025 21.6387 40.4328 21.641C40.4641 21.6439 40.4948 21.6514 40.5239 21.6632L40.495 22.1077C40.4179 22.0843 40.3378 22.0724 40.2572 22.0721C40.144 22.0619 40.03 22.0809 39.9262 22.1272C39.8223 22.1735 39.732 22.2455 39.6639 22.3366C39.5302 22.5536 39.4658 22.8064 39.4795 23.061V24.3565H39.035L39.0506 22.3299Z" fill="white"/>
<path d="M40.7926 23.0299C40.7897 22.8348 40.8267 22.6412 40.9015 22.461C40.9699 22.2949 41.0704 22.1439 41.1971 22.0166C41.3243 21.892 41.4755 21.7944 41.6415 21.7299C41.8222 21.66 42.0145 21.6253 42.2082 21.6277C42.4026 21.6255 42.5956 21.6602 42.7771 21.7299C42.9429 21.7948 43.094 21.8923 43.2215 22.0166C43.3475 22.1445 43.4478 22.2954 43.5171 22.461C43.6602 22.826 43.6602 23.2316 43.5171 23.5966C43.449 23.7628 43.3485 23.9139 43.2215 24.041C43.0946 24.1666 42.9434 24.2649 42.7771 24.3299C42.5953 24.3985 42.4025 24.4332 42.2082 24.4321C42.0146 24.4336 41.8224 24.3989 41.6415 24.3299C41.475 24.2654 41.3237 24.167 41.1971 24.041C41.0696 23.9143 40.9691 23.7631 40.9015 23.5966C40.8267 23.4172 40.7897 23.2243 40.7926 23.0299V23.0299ZM41.2704 23.0299C41.2696 23.1623 41.2914 23.2938 41.3349 23.4188C41.3773 23.5341 41.4423 23.6399 41.526 23.7299C41.608 23.8247 41.7096 23.9005 41.8238 23.9521C41.947 24.0035 42.0792 24.0299 42.2126 24.0299C42.3461 24.0299 42.4783 24.0035 42.6015 23.9521C42.7157 23.9005 42.8173 23.8247 42.8993 23.7299C42.9839 23.6405 43.0489 23.5346 43.0904 23.4188C43.1794 23.1672 43.1794 22.8926 43.0904 22.641C43.0489 22.5245 42.9839 22.4179 42.8993 22.3277C42.8155 22.2383 42.7141 22.1671 42.6015 22.1188C42.4783 22.0674 42.3461 22.041 42.2126 22.041C42.0792 22.041 41.947 22.0674 41.8238 22.1188C41.7112 22.1671 41.6098 22.2383 41.526 22.3277C41.4422 22.4185 41.3773 22.525 41.3349 22.641C41.2912 22.766 41.2694 22.8975 41.2704 23.0299V23.0299Z" fill="white"/>
<path d="M44.3148 22.3299C44.3148 22.2099 44.3103 22.0965 44.3014 21.9899C44.3014 21.8832 44.2903 21.7876 44.2903 21.701H44.7103C44.7103 21.7721 44.7103 21.8432 44.7103 21.9232C44.7103 22.0032 44.7103 22.0676 44.7103 22.1454H44.7214C44.7537 22.077 44.7965 22.014 44.8481 21.9588C44.9062 21.8967 44.9719 21.8422 45.0436 21.7965C45.1237 21.7481 45.2096 21.7101 45.2992 21.6832C45.3988 21.6541 45.5021 21.6399 45.6059 21.641C45.7578 21.6384 45.9088 21.6656 46.0503 21.721C46.1703 21.7701 46.2775 21.8462 46.3636 21.9432C46.4502 22.043 46.5139 22.1606 46.5503 22.2876C46.5899 22.4324 46.6093 22.582 46.6081 22.7321V24.3743H46.1636V22.7632C46.1742 22.5756 46.1226 22.3897 46.017 22.2343C45.9611 22.1679 45.8903 22.1157 45.8103 22.0821C45.7303 22.0485 45.6435 22.0344 45.557 22.041C45.4286 22.0377 45.3012 22.0627 45.1836 22.1143C45.0807 22.1652 44.9927 22.2417 44.9281 22.3365C44.8582 22.4339 44.8084 22.5442 44.7814 22.661C44.7472 22.796 44.7307 22.935 44.7325 23.0743V24.3699H44.2881L44.3148 22.3299Z" fill="white"/>
<path d="M49.797 23.7187C49.797 23.841 49.797 23.9543 49.8081 24.061C49.8192 24.1676 49.8081 24.2632 49.8081 24.3499H49.3881C49.3881 24.2787 49.3881 24.2054 49.3881 24.1276C49.3881 24.0499 49.3881 23.981 49.3881 23.9054H49.377C49.3452 23.9741 49.3025 24.0372 49.2503 24.0921C49.1934 24.1554 49.1275 24.21 49.0548 24.2543C48.9756 24.3044 48.8895 24.3426 48.7992 24.3676C48.6997 24.3974 48.5964 24.4124 48.4925 24.4121C48.3406 24.4147 48.1896 24.3875 48.0481 24.3321C47.9274 24.283 47.8194 24.207 47.7325 24.1099C47.6466 24.0099 47.5836 23.8923 47.5481 23.7654C47.5082 23.6207 47.4888 23.4711 47.4903 23.321V21.681H47.9348V23.2765C47.9246 23.4641 47.9761 23.6499 48.0814 23.8054C48.1373 23.8718 48.2081 23.924 48.2881 23.9576C48.3681 23.9912 48.4549 24.0053 48.5414 23.9987C48.6699 24.0013 48.7974 23.9755 48.9148 23.9232C49.0165 23.8767 49.1045 23.8047 49.1703 23.7143C49.2398 23.6167 49.2896 23.5065 49.317 23.3899C49.3514 23.2541 49.3678 23.1144 49.3659 22.9743V21.681H49.8103L49.797 23.7187Z" fill="white"/>
<path d="M52.0927 22.0743H51.3083V23.4076C51.3083 23.4965 51.3083 23.5765 51.3083 23.6499C51.3104 23.7166 51.3255 23.7822 51.3527 23.8432C51.3791 23.8976 51.4208 23.9432 51.4727 23.9743C51.5413 24.0096 51.6179 24.0265 51.6949 24.0232C51.7623 24.0225 51.8294 24.0143 51.8949 23.9988C51.9615 23.9832 52.0263 23.9609 52.0883 23.9321L52.1038 24.3343C52.0234 24.369 51.9391 24.3936 51.8527 24.4076C51.7654 24.423 51.6769 24.4312 51.5883 24.4321C51.4578 24.437 51.3277 24.415 51.206 24.3676C51.1169 24.3312 51.0399 24.2704 50.9838 24.1921C50.9275 24.1081 50.891 24.0123 50.8771 23.9121C50.8604 23.7884 50.8523 23.6636 50.8527 23.5388V22.0743H50.2727V21.701H50.8527V20.9454H51.2972V21.701H52.0927V22.0743Z" fill="white"/>
<path d="M52.6348 22.3299C52.6348 22.2099 52.6348 22.1076 52.6237 21.9899C52.6126 21.8721 52.6125 21.7877 52.6125 21.701H53.0326C53.0326 21.7721 53.0326 21.8432 53.0326 21.9232C53.0326 22.0032 53.0326 22.0677 53.0326 22.1454H53.0459C53.0782 22.077 53.1209 22.0141 53.1725 21.9588C53.2307 21.8967 53.2964 21.8422 53.3681 21.7965C53.4482 21.7482 53.534 21.7101 53.6237 21.6832C53.7233 21.6541 53.8266 21.6399 53.9303 21.641C53.9607 21.6387 53.9911 21.6387 54.0214 21.641C54.0527 21.6442 54.0834 21.6516 54.1125 21.6632L54.0837 22.1077C54.0065 22.0845 53.9264 22.0725 53.8459 22.0721C53.7326 22.0619 53.6187 22.0809 53.5148 22.1272C53.411 22.1735 53.3207 22.2455 53.2525 22.3366C53.1177 22.5532 53.0533 22.8063 53.0681 23.061V24.3565H52.6237L52.6348 22.3299Z" fill="white"/>
<path d="M54.5727 20.661C54.5731 20.5775 54.6067 20.4976 54.666 20.4388C54.6946 20.4084 54.729 20.3841 54.7672 20.3673C54.8053 20.3505 54.8465 20.3416 54.8882 20.341C54.9299 20.3413 54.9712 20.3502 55.0094 20.367C55.0476 20.3838 55.082 20.4082 55.1104 20.4388C55.169 20.501 55.2016 20.5833 55.2016 20.6688C55.2016 20.7543 55.169 20.8365 55.1104 20.8988C55.0795 20.9287 55.0429 20.9521 55.0029 20.9678C54.9628 20.9834 54.9201 20.9909 54.8771 20.9899C54.834 20.9914 54.7911 20.9842 54.751 20.9685C54.7109 20.9528 54.6744 20.9291 54.6438 20.8988C54.6167 20.8659 54.5964 20.8279 54.5842 20.7871C54.572 20.7462 54.5681 20.7034 54.5727 20.661V20.661ZM54.6749 21.701H55.1193V24.3677H54.6749V21.701Z" fill="white"/>
<path d="M58.3726 23.8765C58.2371 24.061 58.0576 24.2084 57.8503 24.3054C57.6387 24.391 57.4119 24.4326 57.1837 24.4277C56.9905 24.4304 56.799 24.3925 56.6214 24.3165C56.4621 24.2466 56.3185 24.1454 56.1992 24.0188C56.0818 23.8897 55.9911 23.7387 55.9326 23.5743C55.8008 23.2157 55.8008 22.8219 55.9326 22.4632C55.9975 22.2979 56.0941 22.147 56.217 22.0188C56.341 21.8954 56.4883 21.798 56.6503 21.7321C56.8232 21.6623 57.0083 21.6275 57.1948 21.6299C57.3695 21.628 57.5431 21.6597 57.7059 21.7232C57.8581 21.7831 57.9948 21.8766 58.1059 21.9965C58.2223 22.1248 58.3102 22.2762 58.3637 22.441C58.428 22.6297 58.4588 22.8283 58.4548 23.0277V23.1699H56.3148C56.3308 23.3949 56.4251 23.6072 56.5814 23.7699C56.6579 23.8476 56.7484 23.9102 56.8481 23.9543C56.954 24.0001 57.0683 24.0236 57.1837 24.0232C57.3526 24.0281 57.5203 23.9923 57.6725 23.9188C57.8123 23.8461 57.9344 23.7437 58.0303 23.6188L58.3726 23.8765ZM57.9925 22.7899C57.9932 22.689 57.9739 22.5889 57.9357 22.4955C57.8976 22.4021 57.8414 22.3171 57.7703 22.2454C57.6919 22.1748 57.6003 22.1203 57.5008 22.0852C57.4012 22.0502 57.2957 22.0351 57.1903 22.041C56.9763 22.0274 56.7656 22.0982 56.6031 22.2382C56.4407 22.3782 56.3396 22.5762 56.3214 22.7899H57.9925Z" fill="white"/>
<path d="M59.157 22.3299C59.157 22.2099 59.1526 22.0965 59.1437 21.9899C59.1437 21.8832 59.1326 21.7876 59.1326 21.701H59.5548C59.5548 21.7721 59.5548 21.8432 59.5548 21.9232C59.5548 22.0032 59.5548 22.0677 59.5548 22.1454H59.5659C59.5982 22.077 59.6409 22.0141 59.6926 21.9588C59.7507 21.8967 59.8164 21.8422 59.8881 21.7965C59.9682 21.7482 60.0541 21.7101 60.1437 21.6832C60.244 21.654 60.3481 21.6398 60.4526 21.641C60.6045 21.6383 60.7555 21.6655 60.897 21.721C61.0174 21.7707 61.1252 21.8466 61.2126 21.9432C61.2977 22.0437 61.3605 22.1611 61.397 22.2877C61.4366 22.4324 61.456 22.582 61.4548 22.7321V24.3743H61.0103V22.7632C61.0209 22.5756 60.9693 22.3897 60.8637 22.2343C60.8078 22.1679 60.737 22.1157 60.657 22.0821C60.577 22.0485 60.4902 22.0344 60.4037 22.041C60.2754 22.0377 60.1479 22.0627 60.0303 22.1143C59.9275 22.1652 59.8394 22.2417 59.7748 22.3365C59.7049 22.4339 59.6551 22.5442 59.6281 22.661C59.5939 22.796 59.5774 22.935 59.5792 23.0743V24.3699H59.1348L59.157 22.3299Z" fill="white"/>
<path d="M63.768 22.0743H62.9814V23.4076C62.9814 23.4965 62.9814 23.5765 62.9814 23.6499C62.9835 23.7166 62.9986 23.7822 63.0258 23.8432C63.0522 23.8976 63.0939 23.9432 63.1458 23.9743C63.2144 24.0096 63.291 24.0265 63.368 24.0232C63.4354 24.0225 63.5025 24.0143 63.568 23.9988C63.6346 23.9832 63.6994 23.9609 63.7614 23.9321L63.7769 24.3343C63.6959 24.3693 63.6108 24.3939 63.5236 24.4076C63.437 24.4231 63.3493 24.4313 63.2614 24.4321C63.1309 24.437 63.0008 24.415 62.8791 24.3676C62.79 24.3312 62.713 24.2704 62.6569 24.1921C62.6006 24.1081 62.5641 24.0123 62.5502 23.9121C62.5335 23.7884 62.5254 23.6636 62.5258 23.5388V22.0743H61.9458V21.701H62.5369V20.9454H62.9814V21.701H63.7658L63.768 22.0743Z" fill="white"/>
<path d="M64.6838 23.7188C64.7742 23.7193 64.8606 23.7557 64.9243 23.8198C64.988 23.8839 65.0238 23.9706 65.0238 24.061C65.0243 24.1061 65.0152 24.1508 64.9972 24.1921C64.9792 24.2335 64.9527 24.2706 64.9193 24.301C64.8885 24.3325 64.8517 24.3575 64.8111 24.3746C64.7704 24.3917 64.7268 24.4005 64.6827 24.4005C64.6386 24.4005 64.5949 24.3917 64.5543 24.3746C64.5137 24.3575 64.4768 24.3325 64.446 24.301C64.4127 24.2706 64.3861 24.2335 64.3681 24.1921C64.3501 24.1508 64.3411 24.1061 64.3416 24.061C64.3416 24.016 64.3504 23.9715 64.3676 23.93C64.3848 23.8885 64.41 23.8508 64.4418 23.819C64.4736 23.7872 64.5113 23.762 64.5528 23.7448C64.5944 23.7276 64.6388 23.7188 64.6838 23.7188Z" fill="white"/>
<path d="M65.9505 23.661C66.0301 23.7637 66.1272 23.8517 66.2372 23.921C66.3565 23.99 66.4928 24.0239 66.6305 24.0187C66.7008 24.0182 66.7709 24.01 66.8394 23.9943C66.9059 23.98 66.9696 23.9552 67.0283 23.921C67.0832 23.8896 67.1303 23.8464 67.1661 23.7943C67.2004 23.7383 67.2174 23.6733 67.215 23.6076C67.2174 23.5458 67.2011 23.4846 67.1683 23.4321C67.1333 23.3855 67.0895 23.3462 67.0394 23.3165C66.9826 23.2823 66.9212 23.2561 66.8572 23.2388L66.6483 23.1876C66.5239 23.161 66.4039 23.1321 66.2905 23.0988C66.1855 23.0675 66.0853 23.0219 65.9927 22.9632C65.9068 22.9078 65.8364 22.8313 65.7883 22.741C65.7361 22.6376 65.709 22.5234 65.709 22.4076C65.709 22.2918 65.7361 22.1777 65.7883 22.0743C65.8425 21.9767 65.9186 21.8931 66.0105 21.8299C66.1077 21.7638 66.215 21.7143 66.3283 21.6832C66.4461 21.6494 66.568 21.6322 66.6905 21.6321C66.8723 21.6303 67.0522 21.669 67.2172 21.7454C67.38 21.8239 67.5126 21.9535 67.595 22.1143L67.2261 22.3587C67.1694 22.2691 67.0935 22.1932 67.0039 22.1365C66.9023 22.0748 66.7849 22.0439 66.6661 22.0476C66.6039 22.0474 66.542 22.0548 66.4816 22.0699C66.4219 22.0833 66.3648 22.1066 66.3127 22.1388C66.265 22.1691 66.2235 22.2084 66.1905 22.2543C66.1594 22.3026 66.1432 22.359 66.1439 22.4165C66.1424 22.4697 66.1615 22.5215 66.1972 22.561C66.2389 22.6055 66.2887 22.6417 66.3439 22.6676C66.4157 22.6997 66.49 22.7257 66.5661 22.7454C66.6494 22.7694 66.734 22.7887 66.8194 22.8032C66.9334 22.8241 67.0456 22.8539 67.155 22.8921C67.2548 22.9248 67.3486 22.9736 67.4327 23.0365C67.5118 23.0952 67.5764 23.1713 67.6216 23.2587C67.7032 23.4265 67.7213 23.6181 67.6727 23.7982C67.6241 23.9783 67.512 24.1348 67.3572 24.2388C67.2522 24.306 67.1364 24.3549 67.015 24.3832C66.8877 24.4144 66.7571 24.4301 66.6261 24.4299C66.4253 24.4347 66.2256 24.3984 66.0394 24.3232C65.8577 24.2379 65.7037 24.1031 65.595 23.9343L65.9505 23.661Z" fill="white"/>
<path d="M70.6304 23.7187C70.6304 23.841 70.6304 23.9543 70.6415 24.061C70.6526 24.1676 70.6415 24.2632 70.6415 24.3499H70.2215C70.2215 24.2788 70.2215 24.2054 70.2215 24.1276C70.2215 24.0499 70.2215 23.981 70.2215 23.9054H70.2104C70.177 23.9737 70.1335 24.0367 70.0815 24.0921C70.0245 24.1554 69.9587 24.21 69.8859 24.2543C69.8068 24.3045 69.7207 24.3426 69.6304 24.3676C69.5309 24.3975 69.4275 24.4124 69.3237 24.4121C69.1717 24.415 69.0207 24.3878 68.8792 24.3321C68.7579 24.2842 68.6497 24.208 68.5637 24.1099C68.4769 24.0105 68.4138 23.8927 68.3792 23.7654C68.3375 23.621 68.3172 23.4713 68.3192 23.321V21.681H68.7637V23.2765C68.753 23.4645 68.8054 23.6506 68.9126 23.8054C68.968 23.8723 69.0388 23.9247 69.1189 23.9584C69.199 23.9921 69.286 24.0059 69.3726 23.9987C69.5003 24.0011 69.627 23.9753 69.7437 23.9232C69.8454 23.8767 69.9334 23.8047 69.9992 23.7143C70.0685 23.6163 70.119 23.5063 70.1481 23.3899C70.1806 23.2538 70.1963 23.1142 70.1948 22.9743V21.681H70.6392L70.6304 23.7187Z" fill="white"/>
<path d="M71.448 21.701H71.8924V22.0877C72.0084 21.9468 72.1531 21.8324 72.3169 21.7521C72.4821 21.671 72.664 21.6299 72.848 21.6321C73.0426 21.6301 73.2357 21.6655 73.4169 21.7366C73.5837 21.8027 73.735 21.9026 73.8614 22.0299C73.9838 22.158 74.0797 22.309 74.1436 22.4743C74.2132 22.6519 74.2479 22.8413 74.2458 23.0321C74.2482 23.2222 74.2134 23.4109 74.1436 23.5877C74.0803 23.7527 73.9851 23.9037 73.8636 24.0321C73.7437 24.1574 73.5992 24.2565 73.4391 24.3232C73.2744 24.3949 73.0965 24.4312 72.9169 24.4299C72.6977 24.4342 72.4813 24.3798 72.2902 24.2721C72.126 24.1831 71.9892 24.051 71.8947 23.8899V25.6677H71.4502L71.448 21.701ZM71.8924 23.0343C71.8916 23.1667 71.9134 23.2982 71.9569 23.4232C71.9993 23.5386 72.0643 23.6443 72.148 23.7343C72.2305 23.8286 72.332 23.9043 72.4458 23.9565C72.569 24.0079 72.7012 24.0343 72.8347 24.0343C72.9682 24.0343 73.1004 24.0079 73.2236 23.9565C73.3382 23.9045 73.4404 23.8288 73.5236 23.7343C73.6073 23.6448 73.6716 23.5388 73.7125 23.4232C73.8014 23.1716 73.8014 22.8971 73.7125 22.6454C73.6719 22.529 73.6076 22.4223 73.5236 22.3321C73.4385 22.2432 73.3365 22.1721 73.2236 22.1232C73.1004 22.0719 72.9682 22.0454 72.8347 22.0454C72.7012 22.0454 72.569 22.0719 72.4458 22.1232C72.3335 22.1722 72.2323 22.2432 72.148 22.3321C72.0642 22.4229 71.9993 22.5294 71.9569 22.6454C71.913 22.7689 71.8904 22.8989 71.8902 23.0299L71.8924 23.0343Z" fill="white"/>
<path d="M74.917 21.701H75.3614V22.0877C75.4766 21.9469 75.6205 21.8325 75.7837 21.7521C75.9489 21.6713 76.1308 21.6302 76.3148 21.6321C76.5101 21.6299 76.704 21.6654 76.8859 21.7366C77.0531 21.8019 77.2045 21.9019 77.3303 22.0299C77.4534 22.1579 77.5501 22.3089 77.6148 22.4743C77.6844 22.652 77.7192 22.8413 77.717 23.0321C77.7194 23.2222 77.6846 23.4109 77.6148 23.5877C77.5498 23.7519 77.4548 23.9026 77.3348 24.0321C77.2116 24.1583 77.0643 24.2585 76.9017 24.3268C76.7391 24.3951 76.5645 24.4302 76.3881 24.4299C76.1688 24.4346 75.9524 24.3801 75.7614 24.2721C75.5968 24.1837 75.4599 24.0514 75.3659 23.8899V25.6677H74.9214L74.917 21.701ZM75.3614 23.0343C75.3606 23.1667 75.3824 23.2982 75.4259 23.4232C75.4674 23.539 75.5324 23.645 75.617 23.7343C75.699 23.8291 75.8006 23.9049 75.9148 23.9566C76.038 24.0079 76.1702 24.0343 76.3037 24.0343C76.4372 24.0343 76.5693 24.0079 76.6926 23.9566C76.8068 23.9049 76.9084 23.8291 76.9903 23.7343C77.0749 23.645 77.14 23.539 77.1815 23.4232C77.2673 23.1711 77.2673 22.8976 77.1815 22.6454C77.14 22.529 77.0749 22.4223 76.9903 22.3321C76.9065 22.2427 76.8052 22.1716 76.6926 22.1232C76.5693 22.0719 76.4372 22.0454 76.3037 22.0454C76.1702 22.0454 76.038 22.0719 75.9148 22.1232C75.8022 22.1716 75.7008 22.2427 75.617 22.3321C75.5324 22.4223 75.4674 22.529 75.4259 22.6454C75.3827 22.769 75.3609 22.899 75.3614 23.0299V23.0343Z" fill="white"/>
<path d="M78.2571 23.0299C78.2553 22.8349 78.2923 22.6415 78.366 22.461C78.4344 22.2949 78.5349 22.1439 78.6616 22.0166C78.7888 21.892 78.94 21.7944 79.106 21.7299C79.4723 21.5937 79.8753 21.5937 80.2416 21.7299C80.4074 21.7948 80.5585 21.8923 80.686 22.0166C80.812 22.1445 80.9123 22.2954 80.9816 22.461C81.1247 22.826 81.1247 23.2316 80.9816 23.5966C80.9135 23.7629 80.813 23.9139 80.686 24.041C80.5591 24.1666 80.4078 24.2649 80.2416 24.3299C79.8753 24.4661 79.4723 24.4661 79.106 24.3299C78.9395 24.2654 78.7882 24.167 78.6616 24.041C78.5341 23.9143 78.4336 23.7631 78.366 23.5966C78.2923 23.4168 78.2553 23.2242 78.2571 23.0299V23.0299ZM78.7349 23.0299C78.7341 23.1623 78.7559 23.2938 78.7994 23.4188C78.8418 23.5342 78.9068 23.6399 78.9905 23.7299C79.073 23.8241 79.1745 23.8999 79.2883 23.9521C79.4115 24.0035 79.5437 24.0299 79.6771 24.0299C79.8106 24.0299 79.9428 24.0035 80.066 23.9521C80.1806 23.9001 80.2829 23.8244 80.366 23.7299C80.4498 23.6403 80.5141 23.5344 80.5549 23.4188C80.6439 23.1672 80.6439 22.8927 80.5549 22.641C80.5144 22.5246 80.45 22.4179 80.366 22.3277C80.281 22.2387 80.179 22.1677 80.066 22.1188C79.9428 22.0675 79.8106 22.041 79.6771 22.041C79.5437 22.041 79.4115 22.0675 79.2883 22.1188C79.176 22.1678 79.0747 22.2388 78.9905 22.3277C78.9067 22.4185 78.8418 22.525 78.7994 22.641C78.7557 22.766 78.7339 22.8975 78.7349 23.0299V23.0299Z" fill="white"/>
<path d="M81.786 22.3299C81.786 22.2099 81.7816 22.0965 81.7727 21.9899C81.7727 21.8832 81.7727 21.7877 81.7727 21.701H82.1949C82.1949 21.7721 82.1949 21.8432 82.1949 21.9232C82.1949 22.0032 82.1949 22.0677 82.1949 22.1454C82.2272 22.077 82.27 22.0141 82.3216 21.9588C82.3797 21.8967 82.4454 21.8422 82.5171 21.7965C82.5972 21.7482 82.6831 21.7101 82.7727 21.6832C82.873 21.654 82.9771 21.6398 83.0816 21.641C83.1112 21.6388 83.1409 21.6388 83.1705 21.641C83.2018 21.6439 83.2325 21.6514 83.2616 21.6632L83.2327 22.1077C83.1556 22.0843 83.0755 22.0724 82.9949 22.0721C82.8817 22.0619 82.7677 22.0809 82.6639 22.1272C82.56 22.1735 82.4697 22.2455 82.4016 22.3366C82.2679 22.5537 82.2035 22.8064 82.2171 23.061V24.3565H81.7727L81.786 22.3299Z" fill="white"/>
<path d="M85.2394 22.0743H84.4549V23.4076C84.4549 23.4965 84.4549 23.5765 84.4549 23.6499C84.4578 23.7167 84.4736 23.7824 84.5016 23.8432C84.528 23.8977 84.5697 23.9432 84.6216 23.9743C84.6902 24.0096 84.7667 24.0265 84.8438 24.0232C84.9104 24.0226 84.9768 24.0144 85.0416 23.9988C85.1083 23.9839 85.1732 23.9616 85.2349 23.9321L85.2527 24.3343C85.1716 24.3693 85.0865 24.3939 84.9994 24.4076C84.912 24.4231 84.8236 24.4313 84.7349 24.4321C84.6052 24.4368 84.4759 24.4148 84.3549 24.3676C84.2656 24.3316 84.1885 24.2706 84.1327 24.1921C84.0771 24.1079 84.0414 24.0121 84.0283 23.9121C84.0104 23.7885 84.0023 23.6637 84.0038 23.5388V22.0743H83.426V21.701H84.006V20.9454H84.4505V21.701H85.2349L85.2394 22.0743Z" fill="white"/>
</g>
<defs>
<clipPath id="clip0">
<rect width="85.2527" height="25.6677" fill="white"/>
</clipPath>
</defs>
</svg>
