<?xml version="1.0" standalone="no"?>
<!DOCTYPE svg PUBLIC "-//W3C//DTD SVG 20010904//EN"
 "http://www.w3.org/TR/2001/REC-SVG-20010904/DTD/svg10.dtd">
<svg version="1.0" xmlns="http://www.w3.org/2000/svg"
 width="700.000000pt" height="700.000000pt" viewBox="0 0 700.000000 700.000000"
 preserveAspectRatio="xMidYMid meet">
<metadata>
Created by potrace 1.11, written by Peter Selinger 2001-2013
</metadata>
<g transform="translate(0.000000,700.000000) scale(0.100000,-0.100000)"
fill="#000000" stroke="none">
<path d="M3058 6969 c-93 -51 -141 -109 -263 -320 -61 -107 -126 -221 -144
-254 -18 -33 -36 -64 -41 -70 -4 -5 -19 -30 -32 -55 -14 -25 -34 -61 -45 -80
-36 -63 -146 -254 -166 -290 -11 -19 -45 -80 -77 -135 -32 -55 -67 -116 -78
-135 -37 -65 -145 -255 -165 -290 -11 -19 -30 -53 -42 -75 -13 -22 -73 -128
-135 -235 -61 -107 -126 -220 -143 -250 -16 -30 -41 -72 -54 -92 -12 -21 -23
-40 -23 -44 0 -3 -8 -18 -18 -32 -11 -15 -33 -52 -49 -82 -17 -30 -66 -118
-110 -195 -44 -77 -91 -160 -105 -185 -14 -25 -76 -132 -137 -239 -155 -269
-162 -288 -162 -414 0 -218 148 -401 366 -450 47 -10 209 -13 768 -12 389 0
707 -3 707 -7 0 -4 -13 -29 -29 -56 -15 -26 -39 -68 -53 -93 -14 -24 -71 -125
-128 -224 -57 -99 -138 -241 -180 -315 -42 -74 -168 -295 -280 -490 -112 -195
-217 -380 -233 -410 -17 -30 -38 -66 -47 -80 -9 -14 -31 -52 -50 -85 -53 -96
-69 -124 -130 -230 -32 -55 -68 -118 -80 -140 -12 -22 -49 -87 -82 -144 -72
-125 -87 -159 -102 -231 -41 -195 40 -378 217 -492 l51 -33 173 -3 173 -3 60
32 c51 27 336 307 1855 1827 1282 1281 1804 1810 1824 1846 163 286 -10 645
-334 692 -27 4 -251 7 -497 7 -319 0 -445 3 -441 11 4 6 291 439 639 961 347
523 641 968 652 990 64 129 56 306 -21 437 -34 58 -122 140 -185 172 l-51 26
-1258 0 -1258 -1 -57 -30z m2347 -447 c-2 -6 -334 -506 -736 -1110 -403 -603
-743 -1120 -756 -1148 -47 -102 -32 -205 38 -275 82 -82 45 -78 786 -79 361 0
658 -1 659 -3 1 -1 -741 -745 -1649 -1652 -1400 -1400 -1645 -1641 -1617
-1590 18 33 37 65 41 70 4 6 18 30 31 55 14 25 240 421 502 880 263 459 490
855 504 880 43 78 95 168 219 385 66 116 131 228 143 250 18 32 21 51 18 100
-7 99 -58 178 -144 221 -37 18 -71 19 -854 21 -448 2 -859 3 -913 3 l-99 0 20
33 c11 17 29 49 41 70 46 82 68 120 181 318 118 205 141 245 188 329 14 25 64
113 112 195 47 83 89 157 93 165 4 8 16 29 26 45 18 30 520 907 569 995 32 57
402 703 452 790 l38 65 1056 0 c843 0 1055 -2 1051 -13z"/>
</g>
</svg>
